<?xml version="1.0" encoding="utf-8"?><svg width="1025" height="964" viewBox="0 0 1025 964" xmlns="http://www.w3.org/2000/svg" xmlns:xlink="http://www.w3.org/1999/xlink"><svg viewBox="0 0 50 50" width="50" height="50" id="svgsprite_arrow_pointing_down" x="451.74" y="512.01" xmlns="http://www.w3.org/2000/svg"><path d="M24.969.973A1.998 1.998 0 0023 3v38.676l-6.64-6.145a2.003 2.003 0 00-3.336 1.016 2.003 2.003 0 00.617 1.922L25 48.973l11.36-10.504c.613-.551.824-1.422.53-2.196a1.995 1.995 0 00-1.85-1.293 2.006 2.006 0 00-1.4.551L27 41.676V3A2 2 0 0024.969.973z"/></svg><svg viewBox="0 0 24 24" width="24" height="24" id="svgsprite_calendar" x="533.74" y="512.01" xmlns="http://www.w3.org/2000/svg"><path d="M5 0v4h2V0zm12 0v4h2V0zM1 3c-.55 0-1 .45-1 1v3c0 .55.45 1 1 1v16h22V8c.55 0 1-.45 1-1V4c0-.55-.45-1-1-1h-3v2h-4V3H8v2H4V3zm2 5h18v14H3zm2 2v2h2v-2zm4 0v2h2v-2zm4 0v2h2v-2zm4 0v2h2v-2zM5 14v2h2v-2zm4 0v2h2v-2zm4 0v2h2v-2zm4 0v2h2v-2zM5 18v2h2v-2zm4 0v2h2v-2zm4 0v2h2v-2zm4 0v2h2v-2z" fill="#575969"/></svg><svg viewBox="0 0 512.001 512.001" width="512" height="512" id="svgsprite_close" x="512.01" xmlns="http://www.w3.org/2000/svg"><path d="M284.286 256.002L506.143 34.144c7.811-7.811 7.811-20.475 0-28.285-7.811-7.81-20.475-7.811-28.285 0L256 227.717 34.143 5.859c-7.811-7.811-20.475-7.811-28.285 0-7.81 7.811-7.811 20.475 0 28.285l221.857 221.857L5.858 477.859c-7.811 7.811-7.811 20.475 0 28.285a19.938 19.938 0 0014.143 5.857 19.94 19.94 0 0014.143-5.857L256 284.287l221.857 221.857c3.905 3.905 9.024 5.857 14.143 5.857s10.237-1.952 14.143-5.857c7.811-7.811 7.811-20.475 0-28.285L284.286 256.002z"/></svg><svg viewBox="0 0 451.74 451.74" width="451.74" height="451.74" id="svgsprite_error" y="512.01" xmlns="http://www.w3.org/2000/svg"><path d="M446.324 367.381L262.857 41.692c-15.644-28.444-58.311-28.444-73.956 0L5.435 367.381c-15.644 28.444 4.267 64 36.978 64h365.511c34.133-1.422 54.044-35.556 38.4-64z" fill="#e24c4b"/><path d="M225.879 63.025l183.467 325.689H42.413L225.879 63.025z" fill="#fff"/><g fill="#3f4448"><path d="M196.013 212.359l11.378 75.378c1.422 8.533 8.533 15.644 18.489 15.644 8.533 0 17.067-7.111 18.489-15.644l11.378-75.378c2.844-18.489-11.378-34.133-29.867-34.133-18.49-.001-31.29 15.644-29.867 34.133z"/><circle cx="225.879" cy="336.092" r="17.067"/></g></svg><svg viewBox="0 0 512.006 512.006" width="512.01" height="512.01" id="svgsprite_phone" xmlns="http://www.w3.org/2000/svg"><path d="M502.05 407.127l-56.761-37.844-50.459-33.633c-9.738-6.479-22.825-4.355-30.014 4.873l-31.223 40.139c-6.707 8.71-18.772 11.213-28.39 5.888-21.186-11.785-46.239-22.881-101.517-78.23-55.278-55.349-66.445-80.331-78.23-101.517-5.325-9.618-2.822-21.683 5.888-28.389l40.139-31.223c9.227-7.188 11.352-20.275 4.873-30.014l-32.6-48.905-38.877-58.316C98.262.03 85.016-2.95 74.786 3.185L29.95 30.083A54.779 54.779 0 005.074 62.277C-7.187 106.98-9.659 205.593 148.381 363.633s256.644 155.56 301.347 143.298a54.771 54.771 0 0032.194-24.876l26.898-44.835c6.136-10.231 3.156-23.476-6.77-30.093zM291.309 79.447c82.842.092 149.977 67.226 150.069 150.069a8.828 8.828 0 0017.656 0c-.102-92.589-75.135-167.622-167.724-167.724a8.828 8.828 0 00-8.828 8.828 8.826 8.826 0 008.827 8.827z"/><path d="M291.309 132.412c53.603.063 97.04 43.501 97.103 97.103a8.828 8.828 0 0017.656 0c-.073-63.349-51.409-114.686-114.759-114.759a8.828 8.828 0 000 17.656z"/><path d="M291.309 185.378c24.365.029 44.109 19.773 44.138 44.138a8.828 8.828 0 0017.656 0c-.039-34.111-27.682-61.754-61.793-61.793a8.828 8.828 0 00-8.828 8.828 8.826 8.826 0 008.827 8.827z"/></svg><svg viewBox="0 0 24 24" width="24" height="24" id="svgsprite_telegram_app" x="557.74" y="512.01" xmlns="http://www.w3.org/2000/svg"><path d="M19.977 3.121l-.366.149S6.638 8.574 2.613 10.268l-.611.257v2.254l4.945 1.977 1.733 5.24 1.572.01 2.703-2.285 3.4 3.275h2.454l3.156-17.121-1.988-.754zm-.33 2.297l-2.5 13.562-4.102-3.95-2.82 2.38.775-3.035L17.281 8l-.199-.201s-6.375 3.675-9.08 5.224L4.537 11.64c4.54-1.893 14.16-5.833 15.11-6.221z"/></svg><svg viewBox="0 0 32 32" width="32" height="32" id="svgsprite_viber" x="501.74" y="512.01" xmlns="http://www.w3.org/2000/svg"><path d="M15.7 4c-1.9 0-6.6.2-9.1 2.6C4.8 8.3 4.1 10.9 4 14c-.2 4.9.9 8 2.7 9.6.4.3 1.4 1.1 3.3 1.7v2.5s0 1 .6 1.2c.1 0 .2.1.3.1.6 0 1.1-.7 1.8-1.4.6-.7 1.1-1.2 1.4-1.7h2.2c1.9 0 6.6-.2 9.1-2.6 1.8-1.8 2.5-4.4 2.5-7.7.1-.5.1-1.1.1-1.7-.1-3.7-1.2-6.2-2.7-7.6-.6-.5-3.2-2.4-8.8-2.4h-.8zm-.2 1.9H16.4c5.3 0 7.3 1.7 7.5 1.9 1.2 1 1.9 3.2 2 6.1v.4c.1.6.1 1.1.1 1.4-.1 3-.7 5-1.9 6.3-2.1 1.9-6.5 2-7.7 2h-1.9l-1.6 1.8-1 1.1-.2.3c-.2.2-.5.6-.7.7v-4.5c-2-.5-2.8-1.2-3-1.4-1.4-1.2-2.2-4.1-2-8v-1c.2-2.4.8-4 1.8-5.1 2.1-1.9 6.5-2 7.7-2zm-.1 2.2c-.5 0-.5.7 0 .7 3.7 0 6.9 2.5 6.9 7.2 0 .5.7.5.7 0 0-5.1-3.4-8-7.6-7.9zm-3.963.925a.875.875 0 00-.636.174c-1 .5-2.001 1.502-1.701 2.602 0 0 .2.899 1.3 2.799.6.9 1.1 1.7 1.6 2.3.5.7 1.3 1.5 2.1 2.1 1.6 1.3 4.1 2.6 5.2 2.9 1 .3 2.1-.7 2.6-1.7.2-.4.1-.9-.3-1.2-.6-.6-1.6-1.3-2.3-1.7-.5-.3-1.1-.1-1.3.2l-.5.6c-.2.3-.7.3-.7.3-3.3-.9-4.2-4.3-4.2-4.3s0-.4.3-.7l.6-.5c.3-.2.5-.8.2-1.3-.2-.3-.5-.9-.8-1.2-.3-.4-.9-1.1-.9-1.1a.962.962 0 00-.563-.275zM16.1 10.1c-.5-.1-.6.7-.1.7 2.8.2 4.4 2.1 4.3 4.5-.1.5.7.5.7 0 .1-2.8-1.7-5.1-4.9-5.2zm.3 1.9c-.5-.1-.5.7 0 .7 1.2 0 1.8.7 1.8 1.9.1.5.8.5.8 0-.1-1.6-1-2.6-2.6-2.6z"/></svg></svg>