<svg xmlns="http://www.w3.org/2000/svg" viewBox="0 0 16 16">
  <path d="M2.5 2C1.675781 2 1 2.675781 1 3.5L1 11.5C1 12.324219 1.675781 13 2.5 13L13.5 13C14.324219 13 15 12.324219 15 11.5L15 3.5C15 2.675781 14.324219 2 13.5 2 Z M 2.5 3L13.5 3C13.535156 3 13.5625 3.011719 13.59375 3.019531L8 6.890625L2.40625 3.019531C2.4375 3.011719 2.464844 3 2.5 3 Z M 2 3.953125L8 8.109375L14 3.953125L14 11.035156L10.859375 8.40625L10 9L13.574219 11.984375C13.550781 11.988281 13.527344 12 13.5 12L2.5 12C2.472656 12 2.449219 11.988281 2.425781 11.984375L6 9L5.140625 8.40625L2 11.035156Z"  />
</svg>