<svg xmlns="http://www.w3.org/2000/svg" viewBox="0 0 16 16">
  <path d="M5.5 2C4.675781 2 4 2.675781 4 3.5L4 12.5C4 13.324219 4.675781 14 5.5 14L10.5 14C11.324219 14 12 13.324219 12 12.5L12 12L11 12L11 12.5C11 12.78125 10.78125 13 10.5 13L5.5 13C5.21875 13 5 12.78125 5 12.5L5 3.5C5 3.21875 5.21875 3 5.5 3L10.5 3C10.78125 3 11 3.21875 11 3.5L11 4L12 4L12 3.5C12 2.675781 11.324219 2 10.5 2 Z M 13.019531 4.042969L12.421875 4.828125C13.375 5.5625 14 6.707031 14 8C14 9.292969 13.375 10.4375 12.417969 11.167969L13.019531 11.957031C14.214844 11.042969 15 9.617188 15 8C15 6.382813 14.214844 4.957031 13.019531 4.042969 Z M 11.800781 5.640625L11.203125 6.421875C11.683594 6.789063 12 7.351563 12 8C12 8.648438 11.679688 9.207031 11.199219 9.570313L11.800781 10.359375C12.519531 9.8125 13 8.972656 13 8C13 7.027344 12.519531 6.191406 11.800781 5.640625 Z M 7 11L7 12L9 12L9 11Z"  />
</svg>