<svg xmlns="http://www.w3.org/2000/svg" viewBox="0 0 50 50">
  <path d="M24.96875 0.972656C23.867188 0.988281 22.984375 1.894531 23 3L23 41.675781L16.359375 35.53125C15.835938 35.03125 15.085938 34.855469 14.394531 35.066406C13.703125 35.277344 13.179688 35.84375 13.023438 36.546875C12.867188 37.253906 13.105469 37.988281 13.640625 38.46875L25 48.972656L36.359375 38.46875C36.972656 37.917969 37.183594 37.046875 36.890625 36.273438C36.601563 35.5 35.863281 34.988281 35.039063 34.980469C34.519531 34.976563 34.019531 35.171875 33.640625 35.53125L27 41.675781L27 3C27.007813 2.460938 26.796875 1.941406 26.414063 1.558594C26.03125 1.175781 25.511719 0.964844 24.96875 0.972656Z"  />
</svg>