<svg xmlns="http://www.w3.org/2000/svg" viewBox="0 0 32 32">
  <path d="M15.699219 4C13.799219 4 9.0996094 4.1996094 6.5996094 6.5996094C4.7996094 8.2996094 4.1 10.9 4 14C3.8 18.9 4.8992187 21.999609 6.6992188 23.599609C7.0992188 23.899609 8.1 24.700781 10 25.300781L10 27.800781C10 27.800781 9.9996094 28.8 10.599609 29C10.699609 29 10.800391 29.099609 10.900391 29.099609C11.500391 29.099609 11.999219 28.399219 12.699219 27.699219C13.299219 26.999219 13.799609 26.5 14.099609 26L15.5 26L16.300781 26C18.200781 26 22.900391 25.800391 25.400391 23.400391C27.200391 21.600391 27.900391 18.999219 27.900391 15.699219C28.000391 15.199219 28 14.6 28 14C27.9 10.3 26.800781 7.8003906 25.300781 6.4003906C24.700781 5.9003906 22.1 4 16.5 4L15.699219 4 z M 15.5 5.9003906L16.199219 5.9003906L16.300781 5.9003906L16.400391 5.9003906C21.700391 5.9003906 23.700391 7.6007812 23.900391 7.8007812C25.100391 8.8007812 25.800391 11.000391 25.900391 13.900391L25.900391 14.300781C26.000391 14.900781 26 15.399219 26 15.699219C25.9 18.699219 25.299609 20.7 24.099609 22C21.999609 23.9 17.600391 24 16.400391 24L15.699219 24L15.599609 24L15.5 24L14.5 24L12.900391 25.800781L11.900391 26.900391L11.699219 27.199219C11.499219 27.399219 11.2 27.800391 11 27.900391L11 27.699219L11 23.400391C9 22.900391 8.2 22.2 8 22C6.6 20.8 5.8 17.9 6 14L6 13C6.2 10.6 6.8007812 9.0003906 7.8007812 7.9003906C9.9007813 6.0003906 14.3 5.9003906 15.5 5.9003906 z M 15.400391 8.0996094C14.900391 8.0996094 14.900391 8.8007812 15.400391 8.8007812C19.100391 8.8007813 22.300781 11.3 22.300781 16C22.300781 16.5 23 16.5 23 16C23 10.9 19.600391 7.9996094 15.400391 8.0996094 z M 11.4375 9.0253906C11.225 9.0003906 11.000781 9.0492188 10.800781 9.1992188C9.8007812 9.6992188 8.7996094 10.700781 9.0996094 11.800781C9.0996094 11.800781 9.3003906 12.699609 10.400391 14.599609C11.000391 15.499609 11.5 16.300391 12 16.900391C12.5 17.600391 13.299609 18.4 14.099609 19C15.699609 20.3 18.200781 21.600391 19.300781 21.900391C20.300781 22.200391 21.400391 21.199219 21.900391 20.199219C22.100391 19.799219 21.999609 19.3 21.599609 19C20.999609 18.4 20.000781 17.700781 19.300781 17.300781C18.800781 17.000781 18.2 17.2 18 17.5L17.5 18.099609C17.3 18.399609 16.800781 18.400391 16.800781 18.400391C13.500781 17.500391 12.599609 14.099609 12.599609 14.099609C12.599609 14.099609 12.600391 13.700391 12.900391 13.400391L13.5 12.900391C13.8 12.700391 13.999219 12.099609 13.699219 11.599609C13.499219 11.299609 13.200391 10.700391 12.900391 10.400391C12.600391 10.000391 12 9.3007812 12 9.3007812C11.85 9.1507812 11.65 9.0503906 11.4375 9.0253906 z M 16.099609 10.099609C15.599609 9.9996094 15.5 10.800781 16 10.800781C18.8 11.000781 20.400781 12.900781 20.300781 15.300781C20.200781 15.800781 21 15.800781 21 15.300781C21.1 12.500781 19.299609 10.199609 16.099609 10.099609 z M 16.400391 12C15.900391 11.9 15.900391 12.699219 16.400391 12.699219C17.600391 12.699219 18.199219 13.399609 18.199219 14.599609C18.299219 15.099609 19 15.099609 19 14.599609C18.9 12.999609 18.000391 12 16.400391 12 z" />
</svg>